{"title":"Man.Of.Tai.Chi.2013.HardSubbed.RHeat.mp4","uid":9001588,"size":765515867,"categoryP":"video","categoryS":"movies","magnet":"?xt=urn:btih:20cc7e19b9d425d5a7529e0663ba4bb283b27dd0&amp;dn=Man.Of.Tai.Chi.2013.HardSubbed.RHeat.mp4&amp;tr=udp%3A%2F%2Ftracker.openbittorrent.com%3A80&amp;tr=udp%3A%2F%2Fopen.demonii.com%3A1337&amp;tr=udp%3A%2F%2Ftracker.coppersurfer.tk%3A6969&amp;tr=udp%3A%2F%2Fexodus.desync.com%3A6969","seeders":1,"leechers":0,"uploader":"RicoHeat","files":1,"time":1380950792,"description":" &lt;a href=&quot;http://www.imdb.com/title/tt2016940/&quot; rel=&quot;nofollow&quot; target=&quot;_NEW&quot;&gt;http://www.imdb.com/title/tt2016940/&lt;/a&gt;\n\nA young martial artist's unparalleled Tai Chi skills land him in a highly lucrative underworld fight club.\n\nDirector: Keanu Reeves\nWriter: Michael G. Cooney\nStars: Tiger Hu Chen, Keanu Reeves, Karen Mok\n\nDetails\nCountry: USA | China | Hong Kong\nLanguage: Cantonese | English | Mandarin\nRelease Date: 1 November 2013 (USA)\n\nNote: I integrated the Subs into the movie for both languages (Hard Subs)\n\nENJOY!\n\nFormat                                   : MPEG-4\nFormat profile                           : Base Media\nCodec ID                                 : isom\nFile size                                : 730 MiB\nDuration                                 : 1h 45mn\nOverall bit rate                         : 969 Kbps\nWriting application                      : Lavf54.63.104\n\nVideo\nID                                       : 1\nFormat                                   : MPEG-4 Visual\nFormat profile                           : Simple@L1\nFormat settings, BVOP                    : No\nFormat settings, QPel                    : No\nFormat settings, GMC                     : No warppoints\nFormat settings, Matrix                  : Default (H.263)\nCodec ID                                 : 20\nDuration                                 : 1h 45mn\nBit rate mode                            : Constant\nBit rate                                 : 837 Kbps\nWidth                                    : 640 pixels\nHeight                                   : 272 pixels\nDisplay aspect ratio                     : 2.35:1\nFrame rate mode                          : Constant\nFrame rate                               : 25.000 fps\nColor space                              : YUV\nChroma subsampling                       : 4:2:0\nBit depth                                : 8 bits\nScan type                                : Progressive\nCompression mode                         : Lossy\nBits/(Pixel*Frame)                       : 0.192\nStream size                              : 630 MiB (86%)\nWriting library                          : Lavc54.92.100\n\nAudio\nID                                       : 2\nFormat                                   : AAC\nFormat/Info                              : Advanced Audio Codec\nFormat profile                           : LC\nCodec ID                                 : 40\nDuration                                 : 1h 45mn\nDuration_FirstFrame                      : 64ms\nBit rate mode                            : Constant\nBit rate                                 : 128 Kbps\nChannel count                            : 2 channels\nChannel positions                        : Front: L R\nSampling rate                            : 48.0 KHz\nCompression mode                         : Lossy\nStream size                              : 96.4 MiB (13%)","torrent":{"xt":"urn:btih:20cc7e19b9d425d5a7529e0663ba4bb283b27dd0","amp;dn":"Man.Of.Tai.Chi.2013.HardSubbed.RHeat.mp4","amp;tr":["udp%3A%2F%2Ftracker.openbittorrent.com%3A80","udp%3A%2F%2Fopen.demonii.com%3A1337","udp%3A%2F%2Ftracker.coppersurfer.tk%3A6969","udp%3A%2F%2Fexodus.desync.com%3A6969"],"infoHash":"20cc7e19b9d425d5a7529e0663ba4bb283b27dd0","infoHashBuffer":{"type":"Buffer","data":[32,204,126,25,185,212,37,213,167,82,158,6,99,186,75,178,131,178,125,208]},"announce":[],"urlList":[]}}